<svg xmlns="http://www.w3.org/2000/svg" viewBox="0 0 45.3 68"><defs><style>.cls-1{fill:#fff;}.cls-2{fill:#231f20;}</style></defs><title>Ресурс 1</title><g id="Слой_2" data-name="Слой 2"><g id="Layer_1" data-name="Layer 1"><polygon class="cls-1" points="45.3 0 0 0 0 68 45.3 68 45.3 0"/><polyline class="cls-2" points="44.7 0.7 44.7 67.3 0.6 67.3 0.6 0.7 44.7 0.7"/><rect class="cls-1" x="2.7" y="2.7" width="39.9" height="18.7"/><rect class="cls-1" x="2.7" y="23.5" width="39.9" height="34.2"/><polygon class="cls-1" points="2.7 65.2 2.7 59.7 10.7 59.7 10.7 61 6 61 6 61.8 10 61.8 10 63.1 6 63.1 6 63.9 10.9 63.9 10.9 65.2 2.7 65.2"/><path class="cls-1" d="M17.7,61.3a.7.7,0,0,0-.5-.4h-.8c-.7,0-1,.1-1,.3,0,.8,5.6.3,5.6,2.3,0,1.3-1.9,1.9-4.6,1.9s-4.3-.8-4.3-1.8h3.1a1,1,0,0,0,.5.4,2.77,2.77,0,0,0,.9.1c.8,0,1.3-.1,1.3-.4,0-.8-5.6-.3-5.6-2.4,0-1.2,1.8-1.7,4.3-1.7,2.7,0,4,.8,4.2,1.7Z"/><path class="cls-1" d="M25.9,62.1h1.2c1,0,1.5-.1,1.5-.5s-.5-.6-1.3-.6H25.8v1.1Zm0,1.2v1.9H22.7V59.7h4.6c3.3,0,4.3.5,4.3,1.6,0,.6-.5,1.2-1.6,1.3,1,.2,1.7.3,1.7,1.4,0,.7,0,1,.3,1v.2H28.7a1.85,1.85,0,0,1-.2-1c0-.7-.2-1-1.7-1h-.9Z"/><path class="cls-1" d="M36.8,61v.9h1.3c.6,0,1.1-.2,1.1-.5s-.6-.4-1.3-.4Zm0,1.9v1h1.4c.8,0,1.4-.1,1.4-.5s-.7-.5-1.8-.5Zm-3.2,2.3V59.7h4.7c2.2,0,4,.3,4,1.4,0,.6-.7,1-1.3,1.2,1.1.2,1.6.7,1.6,1.3,0,1.2-1.7,1.7-4.2,1.7H33.6Z"/><path class="cls-2" d="M3.8,11V4.8H6.3v1H4.8V7.3H6.2v1H4.8v1.8H6.4v1H3.8Z"/><path class="cls-2" d="M6.6,4.8h1l.7,4.5h0l.8-4.5h1L8.9,11H7.8Z"/><path class="cls-2" d="M10.5,11V4.8H13v1H11.5V7.3h1.4v1H11.5v1.8h1.6v1H10.5Z"/><path class="cls-2" d="M14.6,11h-1V4.8h1.8a.91.91,0,0,1,.8.4,2.13,2.13,0,0,1,.3,1.2,3,3,0,0,1-.2,1c-.1.3-.3.4-.7.5h0c.1,0,.1,0,.2.1s.2.1.3.2a.52.52,0,0,1,.2.4,1.48,1.48,0,0,1,.1.7v1.5c0,.2,0,.3.1.3h-.9a1.27,1.27,0,0,1-.1-.6V9.4c0-.2,0-.3-.1-.4s-.1-.2-.2-.3-.2-.1-.4-.1h-.2Zm0-3.5H15c.1,0,.2,0,.2-.1l.2-.2c0-.1.1-.2.1-.3V6.6c0-.3,0-.5-.1-.6a.52.52,0,0,0-.4-.2h-.4Z"/><path class="cls-2" d="M18,8.9,16.8,4.8h1l.7,2.6.7-2.6h1L18.9,8.9v2.2h-1V8.9Z"/><path class="cls-2" d="M22.2,11.1a1.22,1.22,0,0,1-.9-.3,1.79,1.79,0,0,1-.5-.7,3,3,0,0,1-.2-1V6.7a3,3,0,0,1,.2-1,1.79,1.79,0,0,1,.5-.7,1.5,1.5,0,0,1,1.8,0,1.79,1.79,0,0,1,.5.7,3,3,0,0,1,.2,1V9.1a3,3,0,0,1-.2,1,1.79,1.79,0,0,1-.5.7C22.9,11.1,22.6,11.1,22.2,11.1Zm0-.9a.37.37,0,0,0,.3-.1c.1-.1.1-.2.2-.4s.1-.4.1-.7V7a1.48,1.48,0,0,0-.1-.7.52.52,0,0,0-.2-.4.5.5,0,0,0-.6,0c-.1.1-.1.2-.2.4s-.1.4-.1.7V9a1.48,1.48,0,0,0,.1.7.52.52,0,0,0,.2.4C21.9,10.2,22,10.2,22.2,10.2Z"/><path class="cls-2" d="M24.5,11V4.8h1.3L27,9.1h0V4.8h.9V11H26.6L25.4,6.5h0V11Z"/><path class="cls-2" d="M28.7,11V4.8h2.5v1H29.7V7.3h1.4v1H29.7v1.8h1.6v1H28.7Z"/><path class="cls-2" d="M33.2,6c.2-.1.3-.3.5-.4a2.18,2.18,0,0,0,.4-.5h.8v6h-1V6.5c-.1.1-.2.3-.4.4s-.3.2-.4.3V6Z"/><path class="cls-2" d="M37.1,4.9a1.45,1.45,0,0,1,.7.2,1,1,0,0,1,.4.5,2.39,2.39,0,0,1,.2.9V9.2a3,3,0,0,1-.2,1,.92.92,0,0,1-.4.6,1.33,1.33,0,0,1-1.4,0c-.2-.1-.3-.4-.4-.6s-.1-.6-.2-1V6.5a2,2,0,0,1,.2-.9,1,1,0,0,1,.4-.5A1.45,1.45,0,0,1,37.1,4.9Zm0,.9c-.1,0-.2,0-.2.1a.37.37,0,0,0-.1.3V9.1a1.48,1.48,0,0,0,.1.7.44.44,0,0,0,.1.3c.1.1.1.1.2.1s.2,0,.2-.1a.37.37,0,0,0,.1-.3,2,2,0,0,1,.1-.7V6.2a.44.44,0,0,0-.1-.3C37.3,5.9,37.2,5.8,37.1,5.8Z"/><path class="cls-2" d="M39.8,6.1h.7V7.8h1.1v1H40.5v1.7h-.7V8.8H38.7v-1h1.1Z"/><path class="cls-2" d="M24.8,49.2H23.4v.7h1.4v1.4h.8V49.9H27v-.8H25.6V47.7h-.8Zm-2.3-.4c0-2.7-1.5-4.3-3.9-4.3-3.3,0-4.1,2.2-4.1,4.3,0,2.6,1.3,4.3,4,4.3s4-1.7,4-4.3M8.7,31.5l19.9-5.9,2,6.3-10,3,.8,2.6,9.2-2.7,2,6.3-9.2,2.7.9,2.7,10.3-3.1,2,6.3-20.2,6L8.7,31.5m.8,15.9A7.28,7.28,0,0,0,12,46.2v6.6h1.9V44.6H12.1a7.34,7.34,0,0,1-2.5,1.3v1.5"/><path class="cls-2" d="M16.2,48.7c0-2.8,1.1-3.4,2.4-3.4s2.2,1.1,2.2,3.5c0,1.5-.4,3.4-2.2,3.3-1.8.1-2.4-1.3-2.4-3.4"/><path class="cls-2" d="M6.9,13.1v1H5.8v5.2h-1V14.1H3.9v-1Z"/><path class="cls-2" d="M8.9,19.4a1.22,1.22,0,0,1-.9-.3,1.79,1.79,0,0,1-.5-.7,3,3,0,0,1-.2-1V15a3,3,0,0,1,.2-1,1.79,1.79,0,0,1,.5-.7,1.22,1.22,0,0,1,.9-.3,1.22,1.22,0,0,1,.9.3,1.79,1.79,0,0,1,.5.7,3,3,0,0,1,.2,1v2.4a3,3,0,0,1-.2,1,1.79,1.79,0,0,1-.5.7A1.22,1.22,0,0,1,8.9,19.4Zm0-.9a.37.37,0,0,0,.3-.1c.1-.1.1-.2.2-.4s.1-.4.1-.7v-2a1.48,1.48,0,0,0-.1-.7.52.52,0,0,0-.2-.4.27.27,0,0,0-.3-.3.37.37,0,0,0-.3.1c-.1.1-.1.2-.2.4s-.1.4-.1.7v2a1.48,1.48,0,0,0,.1.7.52.52,0,0,0,.2.4Q8.75,18.5,8.9,18.5Z"/><path class="cls-2" d="M11.3,13.1h1.6a1.88,1.88,0,0,1,.8.2c.2.1.3.3.5.6a3,3,0,0,1,.2,1c0,.4.1.8.1,1.3v1.3c0,.2-.1.5-.1.7s-.1.4-.3.6-.3.3-.4.4a1.45,1.45,0,0,1-.7.2H11.4V13.1Zm.9,5.3h.5a.6.6,0,0,0,.4-.1.52.52,0,0,0,.2-.4,1.48,1.48,0,0,0,.1-.7V15.4a1.48,1.48,0,0,0-.1-.7.76.76,0,0,0-.2-.5.52.52,0,0,0-.4-.2h-.5Z"/><path class="cls-2" d="M16.7,19.4a1.22,1.22,0,0,1-.9-.3,1.79,1.79,0,0,1-.5-.7,3,3,0,0,1-.2-1V15a3,3,0,0,1,.2-1,1.79,1.79,0,0,1,.5-.7,1.22,1.22,0,0,1,.9-.3,1.22,1.22,0,0,1,.9.3,1.79,1.79,0,0,1,.5.7,3,3,0,0,1,.2,1v2.4a3,3,0,0,1-.2,1,1.79,1.79,0,0,1-.5.7A1.22,1.22,0,0,1,16.7,19.4Zm0-.9a.37.37,0,0,0,.3-.1c.1-.1.1-.2.2-.4s.1-.4.1-.7v-2a1.48,1.48,0,0,0-.1-.7.52.52,0,0,0-.2-.4.5.5,0,0,0-.6,0c-.1.1-.1.2-.2.4s-.1.4-.1.7v2a1.48,1.48,0,0,0,.1.7.52.52,0,0,0,.2.4A.44.44,0,0,0,16.7,18.5Z"/><path class="cls-2" d="M21.8,17.6a3.08,3.08,0,0,1-.1,1,1,1,0,0,1-.4.5c-.2.1-.3.2-.5.2s-.4.1-.6.1a1.45,1.45,0,0,1-.7-.2c-.2-.1-.3-.3-.4-.4a1.42,1.42,0,0,1-.2-.6v-.8h1v.4a.37.37,0,0,0,.1.3.22.22,0,0,0,.2.2c.1,0,.2.1.3.1a.52.52,0,0,0,.4-.2.75.75,0,0,0,.1-.5.9.9,0,0,0-.1-.5c-.1-.1-.2-.3-.4-.4s-.3-.2-.5-.4-.3-.3-.5-.4-.3-.4-.4-.6a2,2,0,0,1-.1-.8,1.7,1.7,0,0,1,.1-.7,1.42,1.42,0,0,1,.2-.6,1,1,0,0,1,.5-.4,1.48,1.48,0,0,1,.7-.1,1.05,1.05,0,0,1,1,.4,2.65,2.65,0,0,1,.3,1.4h-.9v-.3a.37.37,0,0,0-.1-.3.35.35,0,0,0-.1-.2c-.1-.1-.1-.1-.2-.1a.52.52,0,0,0-.4.2.75.75,0,0,0-.1.5.75.75,0,0,0,.1.5c.1.1.2.3.4.4a2.19,2.19,0,0,0,.5.3c.2.1.3.3.5.4s.3.3.4.6A3.75,3.75,0,0,0,21.8,17.6Z"/><path class="cls-2" d="M24.8,14.4h.7v1.7h1.1v1H25.5v1.7h-.7V17.1H23.7v-1h1.1Z"/><path class="cls-2" d="M27,14.2c.2-.1.3-.3.5-.4a2.18,2.18,0,0,0,.4-.5h.8v6h-1V14.7c-.1.1-.2.3-.4.4s-.3.2-.4.3V14.2Z"/><path class="cls-2" d="M30.9,13.2a1.45,1.45,0,0,1,.7.2,1,1,0,0,1,.4.5,2.39,2.39,0,0,1,.2.9v2.7a3,3,0,0,1-.2,1,.92.92,0,0,1-.4.6,1.33,1.33,0,0,1-1.4,0c-.2-.1-.3-.4-.4-.6s-.1-.6-.2-1V14.8a2,2,0,0,1,.2-.9,1,1,0,0,1,.4-.5A1.45,1.45,0,0,1,30.9,13.2Zm0,.9c-.1,0-.2,0-.2.1a.37.37,0,0,0-.1.3v3.6a.44.44,0,0,0,.1.3c0,.1.1.1.2.1s.2,0,.2-.1.1-.2.1-.3a2,2,0,0,1,.1-.7V14.5a.44.44,0,0,0-.1-.3A.37.37,0,0,0,30.9,14.1Z"/></g></g></svg>