<svg xmlns="http://www.w3.org/2000/svg" xmlns:xlink="http://www.w3.org/1999/xlink" data-name="Layer 2" viewBox="0 0 1437.06 1350.41" style="fill: rgb(0, 0, 0);" original_string_length="33754">
        <g data-name="Layer 1">
            <g>
                <g>
                    <g style="fill: rgb(255, 255, 255);">
                        <circle cx="930.54" cy="851.68" opacity=".2" r="13.65" style="fill: inherit;"/>
                        <circle cx="847.01" cy="996.62" opacity=".2" r="23.53" style="fill: inherit;"/>
                        <circle cx="665.83" cy="1027.8" opacity=".2" r="9.88" style="fill: inherit;"/>
                        <circle cx="132.66" cy="932.03" opacity=".2" r="8.12" style="fill: inherit;"/>
                        <circle cx="393.83" cy="1163.21" opacity=".2" r="9.18" style="fill: inherit;"/>
                        <circle cx="136.89" cy="1181.91" opacity=".2" r="17.65" style="fill: inherit;"/>
                        <circle cx="208.19" cy="679.8" opacity=".2" r="16" style="fill: inherit;"/>
                    </g>
                    <g style="fill: rgb(255, 255, 255);">
                        <circle cx="557.24" cy="914.18" opacity=".2" r="13.65" style="fill: inherit;"/>
                        <circle cx="441.83" cy="726.62" opacity=".2" r="23.53" style="fill: inherit;"/>
                        <circle cx="497.6" cy="484.5" opacity=".2" r="9.88" style="fill: inherit;"/>
                        <circle cx="744.3" cy="132.62" opacity=".2" r="8.12" style="fill: inherit;"/>
                        <circle cx="453.64" cy="276.7" opacity=".2" r="9.18" style="fill: inherit;"/>
                        <circle cx="1028.62" cy="440.21" opacity=".2" r="17.65" style="fill: inherit;"/>
                        <circle cx="972.88" cy="265.11" opacity=".2" r="16" style="fill: inherit;"/>
                    </g>
                    <g>
                        <g>
                            <g>
                                <g>
                                    <path d="m435.13,177.3c231.31-343.38,610.55-141.9,674.56,212.52,12.44,54.46,14.94,155.74,17.9,212.67-78.87-56.41-150.21-80.4-244.84-98.1,2.27-19.74-1.66-90.42-5.55-109.67-14.99-68.79-52.75-140.46-118.09-172.43-38.7-19.16-82.83,1-110.57,29.96-57.79,61.48-78.98,148.01-86.12,230.02-8.86,116.37,17.64,232.22,75.2,332.62,12,20.93,75.36,101.2,90.02,120.65-2.56,3.84-6.07,10.64-9.74,13.4-52.08,52.55-112.19,118.72-183.97,137.68-17.5-25.74-89.54-130.75-103.9-159.81-109.41-221.43-124.45-528.04,5.11-749.49Z" style="fill: rgb(0, 10, 99);"/>
                                    <path d="m1110.6,572.77c-63.37-42.77-136.89-66.84-211.42-80.54-.07-1.46-.14-2.95-.23-4.46-1.22-23.89-4.27-86.22-8.27-103.67l.02.02c-14.51-60.5-45.63-119.63-95.45-158.14-17.86-14.03-36.04-22.08-53.96-25.02-5.3-.88-10.57-1.3-15.81-1.3-.05-.01-.09-.01-.14,0-16.37.02-32.38,4.19-47.58,11.81-.18.09-.37.18-.56.28-18.61,9.45-36.01,24.08-51.38,42.65-8.3,10.08-15.75,20.73-22.45,31.83-.05.07-.09.14-.13.21-16.92,28.05-29.09,58.94-38.03,90.58-.33,1.13-.65,2.25-.95,3.36-2.31,8.41-4.4,16.87-6.3,25.34-2.66,12.26-4.88,24.61-6.68,37.02-.18,1.18-.34,2.37-.51,3.55-.01.06-.02.11-.02.17-.21,1.49-.41,2.98-.6,4.47-.27,2.05-.53,4.11-.77,6.17-3.45,28.96-4.63,58.19-3.68,87.35.03,1.27.08,2.54.13,3.81.2,5.39.48,10.79.84,16.18,1.23,18.7,3.32,37.35,6.25,55.85-.01,0-.01.02,0,.03.4,2.51.81,5.01,1.24,7.51,0,0,0,.01,0,.02.43,2.5.87,5,1.33,7.49.69,3.76,1.41,7.5,2.17,11.24,9.3,45.87,24.04,90.62,43.98,132.92,1.61,3.43,3.27,6.85,4.95,10.24,1.12,2.27,2.26,4.53,3.41,6.77.58,1.13,1.16,2.25,1.74,3.37,1.17,2.25,2.35,4.48,3.55,6.71,2.62,4.85,5.3,9.68,8.06,14.46,1.66,2.88,3.35,5.75,5.07,8.61,7.81,13,16.16,25.69,25.03,38.02h0c.62,1.18,10.85,13.45,22.36,27.29.63.75,1.25,1.51,1.89,2.28,10.06,12.08,20.73,24.94,26.67,32.42.06.08.12.16.18.23,2.69,3.39,4.36,5.63,4.5,6.12h0c-.04.05,6.33,6.19,6.29,6.23-16.09,15.36-27.08,34.57-43.94,49.06-15.27,13.27-45.96,28.08-64.83,49.98-23.99,27.88-48,50.6-64.64,37.2-1.63-1.32-3.2-2.98-4.69-5.03-.01-.01-.01-.02-.02-.03-18.51-25.47-35.65-52.16-51.39-79.81-2.28-4-4.52-8.02-6.74-12.06-.8-1.44-1.58-2.89-2.36-4.34,0-.01,0-.02-.02-.03-3.94-7.24-7.77-14.55-11.51-21.92-29.64-58.37-53.3-120.25-70.61-183.33-23.22-84.63-35.01-171.42-34.46-254.79v-.14c1.86-74.12,12.75-147.94,34.65-215.44,5.68-17.53,12.11-34.62,19.31-51.18-.24.66-.47,1.32-.71,1.99,16.48-38.07,36.96-73.37,61.85-104.6.01-.03.04-.05.07-.08,41.03-50.2,93.45-89.77,157.9-114.54.32-.12.63-.25.95-.37,27.04-10.52,53.75-16.32,79.88-18.02,44.16-2.88,86.66,5.93,126.25,23.45,41.93,18.55,80.6,46.87,114.55,81.41,35.06,35.67,65.07,77.96,88.43,122.99.03.05.05.11.08.16,17.54,33.81,31.31,69.16,40.64,104.39,1.38,5.2,2.66,10.39,3.84,15.57,1.48,5.87,2.89,12.37,4.22,19.38,3.72,19.54,6.85,42.95,9.44,67.19,4.38,41.02,7.23,84.41,8.74,115.41v.07c.12,2.36.23,4.64.33,6.84.02.39.03.76.05,1.14Z" style="fill: rgb(1, 184, 254);"/>
                                    <path d="m677.4,986.37c-4.65,3.99-21.07,11.06-25.82,14.94-1.38,1.11.74,8.32-.65,9.41-.04.04-3.32.33-3.35.35-32.96,23.94-67.48,54.92-106.32,67.32-20.74-13.76-35.3-53.21-55.42-84.78-11.26-17.64-20.55-32.39-23.02-36.76-14.12-24.91-27.17-51.49-39.05-77.65h0c-.07-.18-.12-.34-.19-.51-.05-.17-.11-.32-.16-.48-.04-.08-.08-.18-.1-.27-.06-.15-.1-.29-.15-.4-.02-.04-.04-.09-.05-.13,0-.03-.01-.05-.01-.05-.02-.05-.05-.11-.07-.16-12.18-33.28-21.66-68.64-28.44-105.27-23.22-84.63-35.01-171.42-34.46-254.79v-.14c1.86-74.12,12.75-147.94,34.65-215.44,5.68-17.53,12.11-34.62,19.31-51.18-.24.66-.47,1.32-.71,1.99-36.22,101.66-39.91,196.02-25.6,279.98,36.83,215.88,260.67,428.32,289.62,454.01Z" opacity=".2" style="fill: rgb(0, 10, 99);"/>
                                    <path d="m1093.42,386.26c-.45-1.36-.91-2.74-1.38-4.14-46.77-137.47-236.8-426.93-489.56-267.72-58.4,36.79-105.79,88.53-139.19,148.94-41.82,75.65-64.53,178.1-75.51,269.02-9.71,80.51-7.39,162.83,6.81,239.58-23.22-84.63-35.01-171.42-34.46-254.79v-.14c1.86-74.12,12.75-147.94,34.65-215.44,5.51-16.82,11.71-33.25,18.6-49.19,16.48-38.07,36.96-73.37,61.85-104.6.01-.03.04-.05.07-.08,40.51-50.85,92.67-90.91,158.1-114.64.25-.09.5-.18.75-.27,28.09-10.12,54.59-15.99,79.88-18.02,45.28-3.64,86.65,5,126.25,23.45,39.24,18.29,76.73,46.22,114.55,81.41.52.48,1.04.96,1.56,1.45,33.68,31.5,63.33,74.7,86.87,121.54.03.05.05.11.08.16,17.03,33.91,30.85,69.73,40.64,104.39,3.75,13.26,6.91,26.34,9.44,39.09Z" opacity=".5" style="fill: rgb(255, 255, 255);"/>
                                    <path d="m899.18,492.24h0c-.07-1.47-.14-2.96-.23-4.47-5.61-92.31-61.17-263.42-157.66-286.81-1.89-.46-3.8-.87-5.72-1.21-3.42-.17-6.78-.2-10.09-.09-.05-.01-.09-.01-.14,0-17.25.55-33.08,4.77-47.58,11.81-.18.09-.37.18-.56.28-30.37,14.95-54.8,42.33-73.83,74.48-.05.07-.09.14-.13.21-16.72,28.27-29.27,60.2-38.03,90.58-.33,1.13-.65,2.25-.95,3.36-4.51,16.07-7.94,31.64-10.37,45.94-.96,5.46-1.83,10.94-2.61,16.42-.18,1.18-.35,2.37-.51,3.55-.01.06-.02.11-.02.17-.21,1.49-.41,2.98-.6,4.47-.27,2.05-.52,4.11-.77,6.17-3.42,28.97-4.62,58.19-3.68,87.35.04,1.27.08,2.54.13,3.81.2,5.39.48,10.79.84,16.18,1.22,18.7,3.31,37.35,6.25,55.85-.01,0-.01.02,0,.03.39,2.51.8,5.01,1.24,7.51,0,0,0,.01,0,.02.42,2.5.87,5,1.33,7.49.69,3.76,1.41,7.5,2.17,11.24,9.3,45.87,24.04,90.62,43.98,132.92,1.61,3.43,3.26,6.85,4.95,10.24,1.12,2.27,2.26,4.52,3.41,6.77.58,1.13,1.16,2.25,1.74,3.37,1.17,2.24,2.35,4.48,3.55,6.71,2.62,4.85,5.3,9.68,8.06,14.46,1.66,2.89,3.35,5.75,5.07,8.61,7.81,13,16.16,25.69,25.03,38.02h0c.83,1.14,10.96,13.44,22.36,27.29.63.75,1.25,1.51,1.89,2.28,9.99,12.13,20.63,25.03,26.67,32.42.06.08.12.16.18.23,2.68,3.28,4.41,5.43,4.72,5.88-.07.08-.14.16-.22.24-.04.04-.08.08-.13.13-.47.51,4.39.83,3.86,1.34,3.05,14.79-50.03,72.88-106.21,103.8-22.62,12.45-41.11,29.99-64.64,37.2-1.63-1.32-3.2-2.98-4.69-5.03-.01-.01-.01-.02-.02-.03-18.51-25.47-35.65-52.16-51.39-79.81-2.28-4-4.52-8.02-6.74-12.06-.71-1.48-1.5-2.93-2.36-4.34,0-.01,0-.02-.02-.03-4.18-6.9-9.76-13.13-13.8-20.3.77-.53,1.53-1.07,2.29-1.62,48.03-34.89,70.81-107.75,50.73-161.35-139.77-306.26-2.12-809.2,332.22-642.71,126.42,70.64,112.59,221.22,180.91,269.1,20.68,11.08,47.97,23.13,72.42,29,.93.23,1.86.44,2.78.65,2.97,22.06,4.66,85.01,5.96,114.76v.07c.11,2.54.22,4.84.33,6.84.02.41.04.8.06,1.18-63.33-42.8-136.86-66.81-211.43-80.57Z" opacity=".5" style="fill: rgb(0, 10, 99);"/>
                                    <path d="m652.6,132.45c-244.6,136.93-207.93,487.23-108.1,706.82,15.46,33.8,88.92,131.92,109.6,162.63l-9.18,9.71c-20.71-31.73-95.62-133.17-110.81-167.68-97.4-222.59-129.84-576.9,118.48-711.47h0Z" style="fill: rgb(0, 10, 99);"/>
                                </g>
                                <path d="m966.43,507.13c.12,1.4.13.55.08.61-2.51.25-4.74-1.16-6.99-1.82-4.88-1.42-9.77-2.56-14.58-3.78-2.62-.66-5.02-1.21-7.54-1.8-.85-.2-1.7-.4-2.44-.56-2.99-.68-6.48-1.47-9.29-2.08-6.47-1.4-12.77-2.7-19.01-3.97-1.69-.34-3.05-.6-4.41-.87-1.35-.27-1.85-.36-3.06-.62.03-.39-.05-1.12-.07-1.45-.01-.33-.04-.44-.05-.65-.49-7.22-1.73-14.47-2.62-21.65-1.22-9.87-2.45-19.74-3.65-29.61-.36-2.96-1.43-5.77-2.01-8.73-.91-4.65-1.67-9.34-2.26-14.04-1.18-9.41-1.72-18.9-1.6-28.39.04-3.13.15-6.26.33-9.38.17-2.9.38-5.86-.21-8.73-.29-1.42-.97-2.61-1.42-3.96-.5-1.5-.82-3.12-1.3-4.65-.6-1.89-1.19-3.76-1.81-5.62-.62-1.86-1.25-3.72-1.9-5.55-.65-1.83-1.3-3.67-1.98-5.47-1.35-3.58-2.76-7.16-4.2-10.68-.73-1.77-1.47-3.51-2.22-5.22-1.51-3.42-3.07-6.84-4.68-10.17-1.6-3.33-3.25-6.6-4.95-9.84-.85-1.62-1.7-3.22-2.56-4.77-3.46-6.22-7.09-12.27-10.89-18.24-.95-1.49-1.9-2.9-2.87-4.33-.96-1.43-1.94-2.85-2.91-4.23-1.95-2.76-3.95-5.48-5.96-8.16-.88-1.18-1.8-2.36-2.68-3.47-1.62-2.05-3.38-4.2-5-6.12-1.62-1.92-3.17-3.71-4.74-5.49-.94-1.07-1.99-2.23-2.81-3.12-.82-.89-1.64-1.75-2.25-2.39-.61-.64-.93-.98-1.37-1.43-3.81-3.88-7.62-7.55-11.61-11.16-.57-.52-1.12-.99-1.68-1.48-1.12-.98-2.24-1.94-3.38-2.87-.58-.48-1.15-.94-1.71-1.4-.57-.46-1.14-.94-1.71-1.36-1.05-.8-2.15-1.7-3.19-2.44-9.16-6.52-18.56-12.26-28.62-17.22-.49-.24-.96-.42-1.42-.63-2.49-1.07-4.98-2.08-7.5-3.01-1-.37-1.99-.71-2.97-1.04-2.44-.8-4.86-1.51-7.33-2.15-1.09-.28-2.13-.53-3.25-.77-1.12-.24-2.34-.49-3.49-.68-1.67-.27-3.42-.59-5.09-.74-7.58-.69-14.97-.6-22.5.31-.94.11-1.88.32-2.77.47-.88.15-1.96.38-2.7.53-.74.15-1.49.32-2,.44-.51.12-.72.16-1.04.24-1.12.27-2.23.56-3.26.83-.53.14-1.19.32-1.56.42-.36.1-.44.12-.64.18-.86.25-1.61.48-2.43.74-.17.05-.31.09-.47.15-1.62.52-3.22,1.07-4.82,1.65-.88.32-1.74.65-2.62,1s-1.82.72-2.69,1.09c-.87.36-1.68.71-2.54,1.08-.86.37-1.73.76-2.59,1.17-1.64.77-3.27,1.57-4.88,2.39-.09.05-.18.1-.26.14-.84.45-1.71.91-2.52,1.36-.81.45-1.58.87-2.37,1.34-5.15,3.1-10.1,6.41-14.93,10-.74.55-1.47,1.14-2.23,1.73-.75.59-1.44,1.14-2.22,1.79-.78.65-1.79,1.49-2.59,2.16-.79.67-1.44,1.23-2.21,1.89-.77.67-1.53,1.34-2.31,2.05-2.31,2.11-4.58,4.26-6.8,6.49-.74.74-1.48,1.5-2.22,2.28-2.77,2.93-5.48,5.94-8.13,9.01-.48.56-.96,1.12-1.45,1.73-5.01,6.17-9.8,12.51-14.35,19.05-.5.72-1.01,1.49-1.5,2.24-1.5,2.27-2.97,4.58-4.42,6.9-.49.78-.97,1.57-1.45,2.37-.48.79-.96,1.58-1.43,2.39-.95,1.61-1.88,3.22-2.81,4.86-1.38,2.43-2.73,4.91-4.05,7.38-.03.06-.07.12-.11.19-.88,1.65-1.76,3.32-2.61,4.98-.86,1.66-1.7,3.32-2.53,5-.03.06-.06.12-.09.19-.86,1.75-1.73,3.53-2.55,5.3-.83,1.77-1.67,3.64-2.45,5.4-.78,1.76-1.51,3.41-2.24,5.15-.99,2.34-1.97,4.69-2.92,7.04-.62,1.53-1.26,3.14-1.85,4.64s-1.21,3.1-1.75,4.51c-.54,1.41-.93,2.49-1.44,3.83-.06.16-.1.3-.16.45-.83,2.29-1.59,4.38-2.38,6.74-.8,2.35-1.63,4.82-2.42,7.27-1.58,4.91-3.09,9.91-4.56,14.89-.7,2.39-1.39,4.86-2.06,7.28-.06.21-.11.43-.17.64-.66,2.47-1.31,4.88-1.93,7.38-1.26,5.06-2.45,10.17-3.59,15.28-.04.18-.08.32-.11.56-.03.24.09.87-.21.99s1.24-.07-.02.06c3.43-97.11,39.63-194.7,137.49-235.52,33.56-14,90.88-16.17,125.89,12.34,17.48,14.24,36.04,25.31,54.91,50.22,44.84,59.19,74.18,188.53,88.27,263.38.37,1.95,2.12,7.98,2.24,9.38Z" opacity=".5" style="fill: rgb(0, 10, 99);"/>
                                <path d="m690.48,174.15c58.36-26.32,113.43-11.2,160.07,29.98,42.43,39.61,70.45,92.24,90.86,145.99,11.82,31.6,20.9,114.13,27.75,147.16.97,4.96,1.46,9.87,2.11,14.44l-9.91,1.37c-.65-4.9-1.07-9.53-1.9-13.97-13.16-69.72-35.35-189.19-75.21-248.45-16.01-23.47-34.65-45.57-58.5-61.4-40.25-29.34-89.5-34.94-135.27-15.1h0Z" style="fill: rgb(0, 10, 99);"/>
                                <path d="m937.39,500.35c-5.96-1.45-5.87-1.37-11.53-2.6-9.46-2.06-17.56-3.63-26.8-5.56,1.09-.02-.75-1.47-.76-1.76-2.78-80.74-62.07-260.79-157.04-285.34-16.34-4.22-30.67,1.13-46.75,6.27-64.01,20.44-89.41,76.28-118.47,136.26-7.56,15.6-12.55,42.53-18.42,59.7-.1.29.77-.1.55.01,62.89-374.96,357.8-169.12,379.21,93.01Z" opacity=".5" style="fill: rgb(0, 10, 99);"/>
                            </g>
                            <g style="fill: rgb(255, 255, 255);">
                                <circle cx="578.97" cy="879.98" opacity=".2" r="13.65" style="fill: inherit;"/>
                                <circle cx="476.7" cy="747.59" opacity=".2" r="23.53" style="fill: inherit;"/>
                                <circle cx="516.79" cy="568.18" opacity=".2" r="9.88" style="fill: inherit;"/>
                                <circle cx="808.19" cy="111.52" opacity=".2" r="8.12" style="fill: inherit;"/>
                                <circle cx="495.04" cy="265.12" opacity=".2" r="9.18" style="fill: inherit;"/>
                                <circle cx="1012.73" cy="277.33" opacity=".2" r="16" style="fill: inherit;"/>
                            </g>
                            <path d="m788.12,19.95c209.26,55.74,319.24,344.2,322.48,552.82-63.37-42.76-136.9-66.84-211.42-80.53-.06-1.95-.26-3.84-.38-5.73,123.18,3.23,162.72-338.28-110.68-466.55Z" opacity=".2" style="fill: rgb(0, 10, 99);"/>
                        </g>
                        <path d="m1097.78,407.66c-44.77-145.91-176.42-327.27-340.28-338.62-24.07-1.38-48.42,1.35-71.68,8.09,23.08-7.34,47.45-10.72,71.76-9.96,146.07,6.51,265.17,141.68,326.1,264.65,10.78,21.98,20.22,44.67,27.98,68,0,0-9.51,9.08-11.89,7.31l-2,.53Z" style="fill: rgb(0, 10, 99);"/>
                    </g>
                    <g>
                        <g>
                            <g>
                                <g>
                                    <path d="m1378.51,813.3c200.61,362.18-151.31,608.28-496.06,504.1-51.89-12.92-150.09-52.11-200.16-74.47-1.44-.64-1.5-2.66-.1-3.4,83.61-43.94,136.64-95.83,194.26-170.33.57-.74,1.6-.95,2.42-.49,72.74,41.31,252.81,65.92,317.73,7.88,24.7-21.76,29.47-57.37,23.14-88.2-14.8-67.31-64.59-120.44-116.53-162.74-89.64-70.57-200.65-112.79-314.57-121.4-40.73-3.11-81.57-1.26-121.99,4.72-7.39.1-73.65,16.03-82.16,17.57-2.25-4.02-6.71-10.24-7.5-14.77-23.11-70.28-36.45-151.38-20.69-223.93,280.09-73.56,656.38,68.03,822.22,325.46Z" style="fill: rgb(0, 10, 99);"/>
                                    <path d="m1416.81,1055.25c-22.55,229.48-300.48,305.62-500.29,254.98-51.54-11.77-151.87-47.18-200.19-68.96-1.41-.64-1.49-2.61-.14-3.37,65-36.7,118.57-89.97,163.72-148.67.53-.69,1.45-.92,2.24-.57,17.3,7.6,86.9,31.72,105.01,36.28h-.02c114.19,30.16,294.78-9.64,241.21-163.48-37.09-97.59-126.79-165.79-217.12-211.92-84.4-41.46-178.56-63.83-272.7-62.08-26.34.51-52.56,2.94-78.63,6.92-1.79.27-69.03,16.48-69.71,14.8-14.25-35.54-38.6-134.01-30.37-209.19,6.98-.88,85.76-14.6,92.93-15.21,314.82-26.6,800.68,208.81,764.07,570.45Z" style="fill: rgb(227, 32, 84);"/>
                                    <path d="m859.39,498.79c.22.03.42.07.63.13,1.75.38,3.52.76,5.27,1.15,267.45,59.63,586.97,266.06,551.46,555.22-6.14,37.89-16.05,70.8-28.99,99.33-.01,0-.02.03-.02.05-37.28,72.59-105.35,115.45-196.37,148.38-77.42,27.98-182.04,27.94-268.23,8.73-.79-.18-1.59-.36-2.38-.54-.04-.01-.06-.02-.11-.03-1.41-.33-2.78-.64-4.14-.96-2.7-.65-5.3-1.29-7.79-1.93-2.45-.62-4.79-1.24-7.02-1.83-3.42-.93-6.58-1.82-9.45-2.66,701.11,125.97,628.41-673.21-32.86-805.03Z" opacity=".4" style="fill: rgb(255, 255, 255);"/>
                                    <path d="m1416.8,1055.49c-17.05,136.47-99.03,202.01-225.29,247.61-86.83,31.37-208.13,27.06-298.48,1.43,140.99,22.26,492.5-13.03,465.4-313.57-6.2-68.75-30.73-134.48-69.34-191.7-48.35-71.65-129.26-138.47-205.24-189.6-99.39-66.86-214.26-112.17-323.15-125.45,6.37.47,12.83,1.06,19.35,1.75,1.64.17,3.29.35,4.94.54,11.06,1.24,22.28,2.78,33.67,4.61l4.83.78c4.09.69,8.16,1.41,12.2,2.15.66.12,1.34.24,2.02.37,1.05.21,2.1.41,3.15.61.03,0,.08,0,.12.02.79.15,1.6.31,2.39.46.32.05.64.12.96.18.64.14,1.29.25,1.95.38.69.14,1.41.27,2.1.42.49.12,1,.21,1.53.31,1.25.27,2.49.52,3.76.78.37.08.75.15,1.12.23.57.13,1.13.25,1.7.36,1.19.25,2.37.49,3.56.77,1.75.38,3.52.76,5.27,1.16,147.05,32.63,310.63,109.19,421.53,220.2,12.47,12.56,23.66,26.13,34.72,39.52,69.45,84.1,109.2,184.18,95.26,295.7Z" opacity=".5" style="fill: rgb(255, 255, 255);"/>
                                    <path d="m1322.99,761.32c-.48-.51-.96-1.02-1.45-1.53-74.06-78.5-156.42-124.7-237.7-150.14-209.01-65.38-482.67,19.64-518.72,33.73-1.44-5.95-2.82-11.94-4.11-17.93-.36-1.73-.98-5.41-.98-5.45-6.33-40.24-6.85-79.75-.22-119.98,13.68-1.53,97.85-16.02,111.86-16.62,28.6-1.24,58.21-.78,86.91.55h.01c.18.02.35.04.53.06.17.03.33.04.5.07.09,0,.19.02.28.03.17.02.31.04.43.05.04,0,.09,0,.13.02.03,0,.05,0,.05,0,.06,0,.12,0,.18.02,6.37.47,12.83,1.06,19.35,1.75,1.64.17,3.29.35,4.94.54,11.06,1.24,22.28,2.78,33.67,4.61l4.83.78c4.09.69,8.16,1.41,12.2,2.15.66.12,1.34.24,2.02.37,1.05.21,2.1.41,3.15.61.03,0,.08,0,.12.02.79.15,1.6.31,2.39.46.32.05.64.12.96.18.64.14,1.29.25,1.95.38.69.14,1.41.27,2.1.42.49.12,1,.21,1.53.31,1.25.27,2.49.52,3.76.78.37.08.75.15,1.12.23.57.13,1.13.25,1.7.36,1.19.25,2.37.49,3.56.77,1.75.38,3.52.76,5.27,1.16,147.05,32.63,310,109.77,420.9,220.78,13.02,13.03,25.32,26.53,36.79,40.47Z" opacity=".2" style="fill: rgb(0, 10, 99);"/>
                                    <path d="m716.19,1237.88c64.99-36.65,118.49-89.94,163.71-148.64.53-.69,1.46-.92,2.25-.57,84.77,38.07,275.49,62.81,337.54-19.01,55.19-95.82-43.29-208.98-116.96-263.85-59.03-44.44-126.76-77-197.87-96.81-77.98-21.77-160.39-27.48-240.48-15.26-3.04.46-73.72,16.98-73.99,16.1-18.7-49.24-37.93-140.65-30.58-209.83,13.4-2.76,98.29-17.66,111.78-16.53,7.47,59.22,63.78,115.11,121.02,121.33,121.67,1.76,293.37,66.29,405.79,170.26,62.2,57.52,102.2,134.76,115.11,202.01,14.24,74.17-11.56,149.57-99.6,215.92-115.66,87.15-248.22-.34-321.93,38.73-20.01,13.89-44.19,33.64-60.61,53.49-21.97-7.73-93.84-34.64-115.01-43.96-1.43-.63-1.51-2.61-.16-3.37Z" opacity=".5" style="fill: rgb(0, 10, 99);"/>
                                    <path d="m1316.87,1026.07c-16.99-332.66-482.04-484.11-749.06-382.24l-1.49-12.91c281.3-100.49,732.95,55.81,750.55,395.15h0Z" style="fill: rgb(0, 10, 99);"/>
                                </g>
                                <path d="m836.95,1141.18c-1.3-.53-.55-.14-.58-.21.92-2.35,3.19-3.69,4.8-5.4,3.49-3.7,6.72-7.54,9.99-11.27,1.78-2.03,3.36-3.93,5.04-5.9.57-.67,1.13-1.34,1.61-1.92,1.97-2.36,4.26-5.11,6.08-7.33,4.19-5.12,8.21-10.15,12.18-15.12,1.07-1.35,1.92-2.45,2.78-3.53.44-.55.73-.93,1.02-1.29.53-.67,1.45-.91,2.23-.56,0,0,.01,0,.02,0,.3.14.41.17.6.25,1.89.81,3.64,1.56,5.55,2.34,1.91.78,3.94,1.58,5.89,2.34.13.05.26.09.4.14,1.93.74,3.81,1.46,5.77,2.17,1.96.72,4.03,1.45,6,2.13,1.98.68,54.65,19.35,56.61,20,.15.05.32.11.44.15,1.66.51,4.1,1.36,5.67,1.78,4.95,1.32,12.95,3.31,16.73,4.53,2.84.92,1.08.36,1.1.37,3.78,1.23,7.95,1.95,11.94,2.71,2,.38,3.95.79,5.92,1.16,1.97.36,3.92.73,5.88,1.05,1.96.33,3.89.65,5.83.94,1.94.29,3.88.58,5.81.83,1.93.25,3.86.51,5.77.72,3.81.43,7.63.8,11.42,1.11,1.9.16,3.8.29,5.66.39,3.74.21,7.49.38,11.19.46,3.7.09,7.36.1,11.01.07,1.82-.02,3.65-.05,5.41-.11,7.11-.26,14.15-.73,21.2-1.4,1.76-.17,3.45-.38,5.16-.59,1.71-.21,3.42-.43,5.1-.67,3.35-.48,6.67-1.03,9.98-1.6,1.45-.25,2.92-.53,4.31-.81,2.56-.51,5.28-1.1,7.72-1.67,2.44-.57,4.75-1.14,7.05-1.72,1.37-.35,2.89-.76,4.05-1.08,1.16-.32,2.3-.66,3.15-.92.85-.25,1.3-.38,1.9-.57,5.19-1.63,10.19-3.36,15.22-5.27.72-.27,1.39-.55,2.08-.83,1.39-.55,2.74-1.12,4.1-1.7.69-.3,1.36-.59,2.03-.89.67-.3,1.35-.59,1.99-.9,1.19-.57,2.49-1.15,3.62-1.74,9.97-5.19,15.94-13.46,24.93-20.16.44-.33,2.25-1,2.65-1.32,2.09-1.73,1.64-3.83,3.62-5.65.78-.72,3.14-1.56,3.88-2.29,1.82-1.81,2.36-2.68,4.06-4.59.75-.84,2.36-2.99,3.09-3.88.73-.89,2.4-1.44,3.09-2.38,1-1.37,2.28-3.53,3.18-4.94,4.07-6.44,9.36-9.06,11.98-16.19.33-.89.57-1.82.84-2.68.27-.85.55-1.92.76-2.65.21-.73.39-1.47.52-1.98.13-.51.18-.71.26-1.04.27-1.12.52-2.24.75-3.28.12-.54.26-1.21.33-1.58.07-.37.09-.44.13-.65.17-.88.31-1.65.45-2.5.03-.17.06-.32.09-.49.27-1.68.51-3.35.72-5.04.12-.93.22-1.85.31-2.79s.18-1.95.25-2.89c.07-.94.13-1.82.19-2.76.06-.94.11-1.89.14-2.83.06-1.81.09-3.63.09-5.43,0-.1,0-.2,0-.29-.02-.95-.03-1.93-.06-2.86-.03-.93-.05-1.8-.11-2.72-.41-6-1.12-11.91-2.11-17.85-.15-.91-.35-1.83-.53-2.77-.18-.94-.36-1.8-.58-2.79-.22-.99-.51-2.28-.75-3.29-.23-1.01-.44-1.84-.68-2.83-.24-.99-.5-1.98-.78-2.99-.83-3.02-1.71-6.02-2.69-9.01-.32-.99-.66-2-1.02-3.01-1.35-3.8-2.8-7.58-4.33-11.34-.28-.68-.57-1.36-.88-2.07-3.22-7.27-6.68-14.41-10.44-21.44-.41-.77-.87-1.57-1.31-2.35-1.34-2.37-2.73-4.73-4.13-7.07-.47-.79-.96-1.58-1.45-2.37-.49-.79-.97-1.57-1.47-2.36-1.01-1.58-2.01-3.14-3.04-4.71-1.54-2.33-3.13-4.66-4.73-6.97-.04-.06-.08-.12-.12-.19-1.07-1.53-2.15-3.07-3.25-4.59-1.09-1.52-2.19-3.02-3.3-4.52-.04-.05-.08-.11-.13-.17-1.17-1.56-2.35-3.14-3.56-4.68-1.2-1.54-2.49-3.14-3.69-4.64-1.21-1.5-2.35-2.89-3.56-4.34-1.63-1.95-3.28-3.89-4.94-5.8-1.08-1.25-2.23-2.55-3.29-3.76s-2.21-2.49-3.22-3.61c-1.01-1.12-1.8-1.97-2.76-3.02-.11-.13-.22-.23-.33-.34-1.66-1.78-3.18-3.41-4.91-5.19-1.73-1.78-3.55-3.64-5.37-5.46-3.66-3.64-7.42-7.26-11.19-10.83-1.81-1.72-3.7-3.45-5.54-5.15-.16-.15-.33-.3-.5-.44-1.9-1.71-3.75-3.39-5.69-5.08-3.94-3.42-7.95-6.81-11.98-10.15-.14-.12-.25-.22-.45-.36-.19-.14-.82-.32-.78-.64s-.51,1.14-.05-.05c84.93,47.22,155.37,123.85,147.22,229.56-2.8,36.25-26.93,88.3-68.25,106.5-20.63,9.09-38.93,20.59-69.7,26.06-73.11,13.02-207.82-14.96-280.89-36.45-1.9-.56-8.07-1.74-9.38-2.27Z" opacity=".5" style="fill: rgb(0, 10, 99);"/>
                                <path d="m1265.19,1042.14c-3.1,63.95-41.62,106.11-99.5,128.93-54.57,19.78-114.19,20.79-171.34,14.52-33.51-3.85-117.33-28.57-149.86-37.49-4.2-1.2-8.21-2.71-12.04-4.07-.98-.35-1.5-1.42-1.16-2.4l2.04-5.86c.35-.99,1.44-1.51,2.42-1.15,3.98,1.45,7.74,2.9,11.51,4.01,68.08,19.99,190.75,49.84,261.66,41.29,28.18-3.58,56.35-10.13,81.29-24.18,44.44-22.5,71.82-63.82,74.97-113.61h0Z" style="fill: rgb(0, 10, 99);"/>
                                <path d="m858.64,1119.4c-1.19-.48-1.56-2-.73-2.98,2.36-2.77,2.8-3.37,5.85-7.09,5.82-7.1,10.69-13.31,16.22-20.2.31-.39.76-.66,1.26-.7.53-.04,1.4-.39,1.57-.31,73.17,34.25,266.67,58.6,331.72-14.81,11.2-12.63,12.94-27.83,15.68-44.49,10.91-66.3-27.27-114.32-67.47-167.48-10.46-13.83-32.18-30.52-44.79-43.55-.21-.22-.26.73-.26.48,304.31,225.79-16.48,399.02-259.05,301.14Z" opacity=".5" style="fill: rgb(0, 10, 99);"/>
                            </g>
                            <g style="fill: rgb(255, 255, 255);">
                                <circle cx="687.3" cy="621.81" opacity=".2" r="13.65" style="fill: inherit;"/>
                                <circle cx="851.71" cy="590.95" opacity=".2" r="23.53" style="fill: inherit;"/>
                                <circle cx="993.26" cy="708.25" opacity=".2" r="9.88" style="fill: inherit;"/>
                                <circle cx="1267.43" cy="1175.46" opacity=".2" r="8.12" style="fill: inherit;"/>
                                <circle cx="1273.06" cy="826.71" opacity=".2" r="9.18" style="fill: inherit;"/>
                                <circle cx="1026.74" cy="1282.21" opacity=".2" r="16" style="fill: inherit;"/>
                            </g>
                            <path d="m1358.11,1199.23c-39.33,46.74-96.12,78.26-166.73,103.81-77.43,27.98-186.11,33.9-268.24,8.72-.77-.24-1.59-.36-2.38-.53-.04-.02-.06-.02-.1-.03-1.42-.33-2.78-.64-4.14-.97-2.7-.66-5.3-1.29-7.79-1.92-2.45-.62-4.79-1.24-7.02-1.83-3.42-.93-6.59-1.82-9.45-2.66h-.02c-4.35-1.26-15.76-2.93-19.76-4.96-.65-.33-2.02-.54-3-.86-13.06-4.17-25.37-7.92-38.59-12.77-21.2-7.76-93.66-34.73-114.55-43.98-1.41-.63-1.5-2.59-.16-3.36,28.91-16.62,55.95-36.14,80.84-58.1,1.71-1.5,10.17-9.18,11.01-10,1.35-1.35,2.71-2.58,4-3.85,4.01-3.89,7.92-7.81,11.81-11.79.97-.99,1.91-1.94,2.83-2.92,1.62-1.68,3.18-3.32,4.77-5.01.73-.77,1.44-1.53,2.17-2.31.37-.4.68-.72,1.07-1.15.39-.43,1.13-1.22,1.48-1.59.35-.4.57-.64.82-.91,1.41-1.54,2.9-3.17,4.25-4.68,3.37-3.74,6.72-7.54,9.95-11.27,1.76-2.05,3.36-3.93,5.03-5.91.56-.65,1.12-1.32,1.62-1.91,1.96-2.36,4.26-5.11,6.07-7.33,4.19-5.12,8.21-10.15,12.18-15.13,1.07-1.33,1.92-2.45,2.78-3.53.44-.54.73-.92,1.02-1.28.53-.67,1.46-.91,2.24-.56,0,0,0,0,0,0,.29.12.4.17.6.25.5.22.99.42,1.47.63,1.02.43,1.43,1.63.93,2.61-55.25,108.28,235.73,291.2,472.99,107.08Z" opacity=".2" style="fill: rgb(0, 10, 99);"/>
                        </g>
                        <path d="m875.09,1299.81c150.31,26.49,368.59-9.41,453.22-150.18,12.17-20.81,20.82-43.73,25.4-67.51-3.96,23.89-12.03,47.14-23.77,68.44-72.23,127.13-246.78,171.72-384.01,170.06-24.48-.4-48.98-2.31-73.28-6l2.44-14.8h0Z" style="fill: rgb(0, 10, 99);"/>
                    </g>
                    <g>
                        <g>
                            <g>
                                <g>
                                    <path d="m1057.29,790.59c-95.03,279.84-375.94,539-693.83,559.82-413.82-1.42-463.34-432.91-204.12-683.1,41.53-42.29,132.53-107.94,187.76-136-.23,8.76,37.97,266.09,33.49,269.18-14.36,9.91-45.87,29.3-46.37,29.89-5,3.83-9.86,7.75-14.65,11.89-60.72,52.33-115.03,140.9-96.59,223.38,15.3,55.07,80.95,71.06,131.47,69.21,61.09-3.05,121.48-22.1,177.28-51.5,70.89-37.35,134.36-91.42,182.42-150.63,1.95-2.41,3.87-4.83,5.78-7.28,23.3-29.82,43.93-62.36,60.56-96.51,17.86-36.71,38.7-92.83,54.66-130.16,4.61-.01,12.22-.87,16.55.65,72.63,14.1,149.94,42.02,205.59,91.16Z" style="fill: rgb(0, 10, 99);"/>
                                    <path d="m1038.56,795.37c-23.63,59.4-50.7,120.7-85.56,174.97-169.83,241.73-531.98,486.77-817.84,296.59C29.87,1198.22-.05,1064.98,27.21,948.13c29.56-145.06,128.8-264.41,246.16-349.78.01,0,.02-.01.03-.03,9.48-6.89,55.52-32.34,71.7-43.72.54,61.19,3.42,93.4,17.44,146.46,3.42-1.75,6.53-2.96,9.27-3.61,3.78,22.73,8.55,45.61,14.52,67.78.15,2.3,3.13,6.97,1.16,8.43-18.63,15.56-59.94,42.19-72.88,52.62-.01,0-.01.01-.01.01-11.4,9.38-22.15,19.75-32.32,30.46v-.02c-42.32,45.85-74.02,104.19-78.44,167.22-7.5,73.12,48.42,119.6,117.76,125.08,52.9,5.25,106.02-6.33,155.5-24.65,0,0,0-.01.01,0,127.62-48.24,236.67-143.69,303.51-262.42,26.07-46.35,44.17-99.31,64.94-148.05,68.76,13.85,138.24,36.04,193,81.46Z" style="fill: rgb(21, 94, 106);"/>
                                    <path d="m435.93,1327.29c.68-.17,1.36-.34,2.04-.52,104.65-26.37,185.16-75.73,247.01-134.28,159.02-150.57,220.56-424.06,225.84-462.4,5.9,1.65,11.79,3.36,17.66,5.16,1.69.53,3.44,1.21,5.11,1.76.06.01.09.02.12.04,38.22,14.1,72.96,32.91,104.85,58.32-5.33,12.69-36.03,86.35-42.34,98.87-12.87,25.57-27.71,51.19-42.87,75.6h0c-.1.16-.21.29-.31.44-.11.14-.2.27-.31.4-.05.07-.11.16-.17.23-.1.14-.19.25-.26.35-.02.04-.05.07-.08.11-.02.02-.03.04-.03.04-.04.05-.07.1-.1.15-3.52,5.33-7.19,10.68-10.97,16.04-.95,1.35-1.91,2.7-2.88,4.05-6.48,9.05-13.29,18.1-20.45,27.14l-3.04,3.83c-2.6,3.24-5.21,6.44-7.82,9.6-.43.52-.86,1.05-1.31,1.58-.7.82-1.38,1.63-2.07,2.46-.01.03-.05.07-.07.1-.52.62-1.05,1.24-1.57,1.86-.2.25-.42.5-.63.75-.43.49-.85,1-1.28,1.51-.46.54-.92,1.09-1.39,1.63-.35.37-.67.77-1.01,1.18-.84.96-1.67,1.92-2.51,2.9-.25.28-.49.59-.75.87-.39.44-.77.86-1.14,1.31-.79.91-1.59,1.83-2.41,2.73-1.18,1.34-2.38,2.7-3.58,4.04-100.21,112.46-247.02,217.09-398.02,259.76-17.73,5.01-35.51,9.17-53.28,12.38Z" opacity=".2" style="fill: rgb(0, 10, 99);"/>
                                    <path d="m133.37,1265.71C22.55,1184.26,5.32,1080.73,27.09,948.26c14.97-91.1,77.89-194.89,144.34-261.27-88.2,112.23-228.83,436.3,46.75,559.23,63.04,28.12,132.39,38.77,201.18,32.97,86.13-7.26,183.93-45.3,265.62-86.7,106.85-54.16,202.42-132.34,267.13-220.92-3.52,5.33-7.19,10.68-10.97,16.04-.95,1.35-1.91,2.7-2.88,4.05-6.48,9.05-13.29,18.1-20.45,27.14l-3.04,3.83c-2.6,3.24-5.21,6.44-7.82,9.6-.43.52-.86,1.05-1.31,1.58-.7.82-1.38,1.63-2.07,2.46-.01.03-.05.07-.07.1-.52.62-1.05,1.24-1.57,1.86-.2.25-.42.5-.63.75-.43.49-.85,1-1.28,1.51-.46.54-.92,1.09-1.39,1.63-.35.37-.67.77-1.01,1.18-.84.96-1.67,1.92-2.51,2.9-.25.28-.49.59-.75.87-.39.44-.77.86-1.14,1.31-.79.91-1.59,1.83-2.41,2.73-1.18,1.34-2.38,2.7-3.58,4.04-100.21,112.46-247.02,217.09-398.02,259.76-17.05,4.76-34.15,8.74-51.24,11.86-107.29,19.61-214.04,5.5-304.6-61.06Z" opacity=".5" style="fill: rgb(255, 255, 255);"/>
                                    <path d="m891.23,1050.62c-.13.17-.27.33-.42.49-1.18,1.34-2.38,2.7-3.57,4.04-182.5,204.39-518.55,382.65-753.67,210.62-30.08-23.84-53.98-48.55-72.57-73.75,0-.02-.02-.03-.03-.05-45.19-67.95-49.4-148.27-33.75-243.8,13.33-81.24,64.4-172.55,123.21-238.42.54-.6,1.09-1.22,1.63-1.82.03-.03.05-.05.07-.08.97-1.07,1.92-2.12,2.86-3.14,1.89-2.04,3.71-4,5.48-5.86,1.74-1.83,3.42-3.57,5.02-5.23,2.47-2.53,4.8-4.86,6.93-6.95-451.93,550.63,281.2,876.94,718.81,363.96Z" opacity=".4" style="fill: rgb(255, 255, 255);"/>
                                    <path d="m1038.54,795.4c-.55,1.32-1.09,2.62-1.66,3.99-2.88,6.91-8.39,22.34-13.9,35.33-6.88,16.23-21.12,47.78-26.79,59.42-61.52-23.77-143.3,1.91-174.42,61.84-104.94,148.82-305.49,280.98-476.69,277.47-249.62-5.12-296.06-277.7-137.69-439.84,37.67-49.43,30.25-97.44,10.97-151.03,17.71-15.63,36.16-30.04,55.01-44.23.01,0,.02-.01.03-.03,9.48-6.89,54.11-32.34,70.29-43.72.54,61.19,4.83,93.4,18.85,146.46,3.42-1.75,6.53-2.96,9.27-3.61-10.27-61.85-13.04-122.24-11.53-161.08-2.8,44.53,6.84,164.68,28.08,236.2-20.78,18.49-60.61,42.09-73.75,53.71-.01,0-.01.01-.01.01-67.93,55.25-135.44,165.42-102.53,254.17,48.92,99.3,189.27,73.63,274.2,40.57,132.95-53.6,245.17-157.41,308.45-286.03,16.74-32.62,34.19-87.31,50.5-122.34,68.62,13.94,138.71,37.3,193.32,82.74Z" opacity=".5" style="fill: rgb(0, 10, 99);"/>
                                    <path d="m205.34,1194.52c249.76,127.28,520.63-97.85,647.73-302.86,19.51-31.64,62.77-126.66,76.81-160.91l12,5c-14.88,34.85-58.92,130.16-79.17,161.96-130.95,204.66-407.5,428.51-657.37,296.82h0Z" style="fill: rgb(0, 10, 99);"/>
                                </g>
                                <path d="m486.64,1120.75c-.12.1-.24.19-.37.28-105.84,78.71-322.85,72.79-331.53-95.26-.35-87.22,53.42-170.94,113.62-238.21,7.78-8.71,15.68-17.14,23.58-25.27,2.99-3.08,5.98-6.11,8.97-9.1.09-.08.71-.5,1.75-1.22.01,0,.02-.01.02-.01,6.8-4.67,31.58-21.48,49.94-33.91,2.33-1.57,4.56-3.08,6.63-4.48.97-.66,1.91-1.3,2.81-1.9.91-.62,1.78-1.21,2.6-1.77,4.12-2.78,7.12-4.8,8.32-5.61.03-.02.06-.04.09-.06.11-.07.21-.14.28-.18l.02-.02c.13-.09.2-.13.2-.13,3.3,17.78,14.09,65.55,14.76,68.52,0,.03.01.07.02.1,0,.01.01.03.01.04,0,0-.07.06-.22.17-.67.53-2.84,2.23-6.2,4.81-1.72,1.33-3.75,2.89-6.05,4.64-.16.12-.32.24-.48.36-3.75,2.85-8.17,6.19-13.11,9.86-.04.04-.09.07-.13.1-.17.13-.33.25-.5.37-.07.05-.14.1-.21.16-.17.13-.34.25-.51.38-11.6,8.62-25.81,18.93-40.45,28.95-1.97,1.35-3.95,2.7-5.93,4.03-6.28,5.21-12.29,10.55-18.07,16.05-.22.2-.44.4-.65.62-.68.64-1.35,1.29-2.02,1.95-.42.4-.85.82-1.27,1.23-.63.62-1.26,1.24-1.89,1.88-.36.35-.71.71-1.07,1.07-1.21,1.21-2.4,2.44-3.59,3.67-.31.32-.62.64-.92.96-1.95,2.03-3.86,4.09-5.75,6.18-.16.17-.31.34-.46.51-1.32,1.45-2.62,2.92-3.91,4.41-1.38,1.58-2.74,3.17-4.09,4.77-.83.99-1.65,1.98-2.48,2.99-.48.59-.96,1.18-1.43,1.77-.62.76-1.23,1.52-1.84,2.29-1.22,1.54-2.43,3.08-3.62,4.65-.6.77-1.2,1.55-1.78,2.34-1.28,1.69-2.54,3.4-3.8,5.13-.34.49-.68.98-1.02,1.47-12.44,17.94-24.01,38.02-33.01,59.19-.24.58-.49,1.16-.72,1.74-.71,1.67-1.39,3.35-2.06,5.04-.02.06-.05.13-.07.19-8.16,20.72-13.73,42.36-15.15,63.98-.19,2.75-.3,5.5-.34,8.25-.3,17.5,2.27,34.92,8.51,51.74.07.2.14.4.22.6.89,2.38,1.86,4.74,2.9,7.09,2.15,3.63,4.43,7.07,6.85,10.33.02.03.03.05.05.07.47.63.94,1.25,1.41,1.87.05.06.09.11.13.17,6.77,8.73,14.49,16.12,22.96,22.3,2.44,1.79,4.95,3.48,7.51,5.07.12.07.24.15.36.22,23.55,14.49,51.95,20.93,81.66,22.02.2.02.4.02.6.02,6.51.23,13.09.2,19.69-.06.3-.01.6-.02.9-.03,13.37-.56,26.84-2.06,40.08-4.24.02,0,.04,0,.06,0,17.03-2.81,33.7-6.75,49.34-11.34.65-.19,1.3-.39,1.94-.58,9.41-2.8,18.44-5.83,26.93-8.97,3.77-1.4,7.44-2.82,10.99-4.25Z" opacity=".5" style="fill: rgb(0, 10, 99);"/>
                                <path d="m373.34,706.13s-.02.01-.03.01c-2.5.82-5.38,2.15-8.6,3.96-.86.49-1.74,1.01-2.65,1.57-.92.55-1.86,1.15-2.83,1.79-2.1,1.36-4.31,2.9-6.61,4.59-19.55,14.33-45.94,39.77-72.6,71.75-82.5,98.95-167.62,260.57-61.06,350.06-106.92-82.83-28.58-248.18,52.93-351.76,10.33-13.13,20.71-25.28,30.77-36.13.01,0,.02-.01.02-.01,20.68-22.31,40.01-39.19,54.76-48.06,1.77-1.07,3.47-2.02,5.1-2.84,3.42-1.75,6.53-2.96,9.27-3.61.07-.02.13-.04.2-.05.32,1.67.78,4.81,1.06,6.83.16,1.12.27,1.9.27,1.9Z" style="fill: rgb(0, 10, 99);"/>
                                <path d="m486.35,1120.29c-3.11,1.4-6.19,2.76-9.24,4.09-.01-.01-.01,0-.01,0-.49.21-.97.42-1.45.62-.43.19-.86.37-1.29.55-326.72,139.86-368.9-143.15-178.75-330.36,2.7-2.67,5.46-5.31,8.26-7.94,28.25-25.03,48.02-41.78,59.91-51.65,2.31-1.92,4.32-3.57,6.04-4.98,3.65-2.99,5.98-4.86,7.05-5.7.15-.13.27-.22.37-.3.03-.02.05-.04.07-.06.03-.02.06-.05.09-.07.21,1.48,2.14,10.66,4.52,21.41,0,.03.01.05.02.08.69,3.13,1.42,6.4,2.16,9.65.01.06.03.11.04.17.72,3.14,1.44,6.27,2.14,9.23.02.07.03.14.05.2.63,2.67,1.24,5.2,1.81,7.5.01.04.02.08.03.12,0,.02.01.03.01.05,0,.01.01.02.01.03.07.29.14.57.21.85-.17.13-2.52,1.8-6.25,4.46-1.89,1.35-4.13,2.95-6.62,4.73-.01.01,0,.01,0,.01-.06.03-.11.07-.16.11-.21.15-.42.3-.63.45-1.31.93-2.69,1.92-4.12,2.93-.63.46-1.28.92-1.94,1.39-.72.52-1.45,1.04-2.2,1.57-.24.17-.47.34-.71.51-.24.17-.47.34-.71.5-1.11.81-2.25,1.62-3.39,2.43-.07.05-.14.1-.21.16-.79.56-1.59,1.13-2.39,1.7-.31.22-.62.44-.93.66-17.26,12.32-35.56,25.39-36.05,25.76-.53.4-1.06.8-1.59,1.21-64.5,49.3-135.67,167.53-104.03,258.08,53.4,92.6,184.01,71.12,269.88,39.85Z" opacity=".5" style="fill: rgb(0, 10, 99);"/>
                            </g>
                            <g style="fill: rgb(255, 255, 255);">
                                <circle cx="867.76" cy="840.38" opacity=".2" r="13.65" style="fill: inherit;"/>
                                <circle cx="814.52" cy="998.97" opacity=".2" r="23.53" style="fill: inherit;"/>
                                <circle cx="643.07" cy="1065.32" opacity=".2" r="9.88" style="fill: inherit;"/>
                                <circle cx="101.49" cy="1076.79" opacity=".2" r="8.12" style="fill: inherit;"/>
                                <circle cx="403.19" cy="1251.81" opacity=".2" r="9.18" style="fill: inherit;"/>
                                <circle cx="125.69" cy="814.6" opacity=".2" r="16" style="fill: inherit;"/>
                            </g>
                            <path d="m390.59,773.19c-14.41,12.31-61.52,43.52-63.24,45.37-28.69-34.82-77.66-38.77-119.97-26.02-133.92,39.67-195.79,212.11-170.88,350.76-54.34-157.44,16.96-327.81,124.06-446.15.01,0,.01-.01.01-.01,33.5-37.37,72.43-71.86,112.8-99.85,9.49-6.93,57.6-40.62,73.8-52.02.54,61.19,1.35,101.67,15.37,154.73,3.42-1.75,6.53-2.96,9.27-3.61-10.27-61.85-13.04-122.24-11.53-161.08-2.24,46.02,9.05,166.77,30.31,237.88Z" opacity=".2" style="fill: rgb(0, 10, 99);"/>
                        </g>
                        <path d="m186.39,671.81c-96.44,118.3-173.67,328.2-92.06,470.73,12.23,20.78,28.02,39.51,46.55,55.1-18.93-15.11-35.28-33.5-48.15-54.13-75.75-125.06-29.55-299.2,38.84-418.18,12.29-21.18,25.91-41.63,40.99-61.05l12.11.72,1.73,6.81Z" style="fill: rgb(0, 10, 99);"/>
                    </g>
                    <path d="m388.4,773.78c-.17.13-2.52,1.8-6.25,4.46,1.72,5.98,3.54,11.69,5.42,16.6.31.39-2.5,2.56-6.98,5.65-1.75-5.81-3.44-11.64-5.06-17.51,0,0-.01,0,0-.01-.01-.01-.02-.03-.02-.05-.04-.12-.07-.25-.1-.38-4.29-15.46-8.17-31.12-11.63-46.94-1.6-7.31-3.11-14.66-4.53-22.03-.01-.04-.02-.08-.02-.11-.62-3.18-1.22-6.37-1.79-9.56-9.27-51.03-14.23-103.34-14.5-155.63,1.48-1.05,2.9-2.05,4.23-3,.5,9.01.87,17.12.87,17.57-1.76,56.05,3.09,89.96,14.5,138.22,3.42-1.75,6.53-2.96,9.27-3.61-10.27-61.85-13.04-122.24-11.53-161.08,0,.33,0,.66,0,.99.01,1.3.02,2.67.02,4.11,0,1.21.01,2.47.01,3.78.07,29.21.15,83.39,12.17,153.87.03.18.06.37.1.56.25,1.44.51,2.89.78,4.35.13-.09.2-.13.2-.13,3.3,17.78,14.09,65.55,14.76,68.52,0,.03.01.07.02.1,0,.01.01.03.01.04h0c.03.08-.03.2-.17.37.07.29.14.57.21.85Z" style="fill: rgb(0, 10, 99);"/>
                </g>
                <path d="m812.04,780.25s134.12-1.41,198.35,102.35c16.24-30.35,40.94-98.82,40.94-98.82l-162.71-69.53-49.76-9.18-26.82,75.18Z" opacity=".6" style="fill: rgb(0, 10, 99);"/>
                <path d="m959.57,1108.13s-86.92,10.08-128.7,177.1c-67.19-10.86-128.95-49.33-128.95-49.33l28.59-16.94s80.12-73.76,88.24-78.71,62.47-65.65,62.47-65.65l78.35,33.53Z" opacity=".3" style="fill: rgb(0, 10, 99);"/>
                <path d="m636.98,480.96s-57.18,111.53,9.18,222.35c-44.47,9.18-55.76,15.18-55.76,15.18l-16.24-45.88-21.18-137.29.35-40.24,83.65-14.12Z" opacity=".3" style="fill: rgb(0, 10, 99);"/>
            </g>
        </g>
    </svg>