<svg xmlns="http://www.w3.org/2000/svg" viewBox="0 0 45.3 68"><defs><style>.cls-1{fill:#fff;}.cls-2{fill:#231f20;}</style></defs><title>Ресурс 1</title><g id="Слой_2" data-name="Слой 2"><g id="Layer_1" data-name="Layer 1"><polygon class="cls-1" points="45.3 0 0 0 0 68 45.3 68 45.3 0"/><polyline class="cls-2" points="44.7 0.7 44.7 67.3 0.6 67.3 0.6 0.7 44.7 0.7"/><rect class="cls-1" x="2.7" y="2.7" width="39.9" height="18.7"/><rect class="cls-1" x="2.7" y="23.5" width="39.9" height="34.2"/><polygon class="cls-1" points="2.7 65.2 2.7 59.7 10.7 59.7 10.7 61 5.9 61 5.9 61.8 10 61.8 10 63.1 5.9 63.1 5.9 63.9 10.9 63.9 10.9 65.2 2.7 65.2"/><path class="cls-1" d="M17.7,61.3a.7.7,0,0,0-.5-.4h-.8c-.7,0-1,.1-1,.3,0,.8,5.6.3,5.6,2.3,0,1.3-1.9,1.9-4.6,1.9s-4.3-.8-4.3-1.8h3.1a1,1,0,0,0,.5.4,2.77,2.77,0,0,0,.9.1c.8,0,1.3-.1,1.3-.4,0-.8-5.6-.3-5.6-2.4,0-1.2,1.8-1.7,4.3-1.7,2.7,0,4,.8,4.2,1.7Z"/><path class="cls-1" d="M25.8,62.1h1.3c1,0,1.5-.1,1.5-.5s-.5-.6-1.3-.6H25.8Zm0,1.2v1.9H22.6V59.7h4.6c3.3,0,4.3.5,4.3,1.6,0,.6-.5,1.2-1.6,1.3,1,.2,1.7.3,1.7,1.4,0,.7,0,1,.3,1v.2H28.6a1.85,1.85,0,0,1-.2-1c0-.7-.2-1-1.7-1h-.9Z"/><path class="cls-1" d="M36.8,61v.9h1.3c.6,0,1.1-.2,1.1-.5s-.6-.4-1.3-.4Zm0,1.9v1h1.4c.8,0,1.4-.1,1.4-.5s-.7-.5-1.8-.5Zm-3.2,2.3V59.7h4.7c2.2,0,4,.3,4,1.4,0,.6-.7,1-1.3,1.2,1.1.2,1.6.7,1.6,1.3,0,1.2-1.7,1.7-4.2,1.7H33.6Z"/><polygon class="cls-2" points="9 31.9 34.4 25.6 36.3 32.3 28.1 34.3 33.6 53.3 24.5 55.6 19.1 36.6 10.9 38.6 9 31.9"/><path class="cls-2" d="M7,4.8v1H5.9V11h-1V5.9H3.8v-1H7Z"/><path class="cls-2" d="M7.4,11.1V4.8H10v1H8.4V7.3H9.9v1H8.4v1.8H10v1Z"/><path class="cls-2" d="M10.7,11.1V4.8h2.6v1H11.7V7.3h1.5v1H11.7v1.8h1.6v1Z"/><path class="cls-2" d="M13.9,11.1V4.8h1.3l1.2,4.3h0V4.8h.9V11H16L14.8,6.5h0v4.6Z"/><path class="cls-2" d="M3.8,19.3l1.1-6.2H6l1.1,6.2H6.2l-.1-1.4H4.9l-.2,1.4Zm1.7-5h0L5.1,17h.8Z"/><path class="cls-2" d="M7.6,13.1H9a1.45,1.45,0,0,1,.7.2.92.92,0,0,1,.4.6,3,3,0,0,1,.2,1c0,.4.1.8.1,1.3v1.3c0,.2-.1.5-.1.7s-.1.4-.2.6a.78.78,0,0,1-.4.4,1.42,1.42,0,0,1-.6.2H7.7V13.1Zm.9,5.3h.4a.37.37,0,0,0,.3-.1c.1-.1.1-.2.2-.4s.1-.4.1-.7V15.4a1.48,1.48,0,0,0-.1-.7.76.76,0,0,0-.2-.5c-.1-.1-.2-.2-.3-.2H8.5Z"/><path class="cls-2" d="M12.5,19.4a1,1,0,0,1-.8-.3,1.61,1.61,0,0,1-.4-.7c-.1-.3-.1-.6-.2-1V15a3,3,0,0,1,.2-1,1.61,1.61,0,0,1,.4-.7,1.14,1.14,0,0,1,.8-.3,1,1,0,0,1,.8.3,1.61,1.61,0,0,1,.4.7c.1.3.1.6.2,1v2.4a3,3,0,0,1-.2,1,1.61,1.61,0,0,1-.4.7C13.2,19.3,12.9,19.4,12.5,19.4Zm0-.9a.37.37,0,0,0,.3-.1c.1-.1.1-.2.2-.4s.1-.4.1-.7v-2a1.48,1.48,0,0,0-.1-.7.52.52,0,0,0-.2-.4.27.27,0,0,0-.3-.3.37.37,0,0,0-.3.1c-.1.1-.1.2-.2.4s-.1.4-.1.7v2a1.48,1.48,0,0,0,.1.7.52.52,0,0,0,.2.4Q12.35,18.5,12.5,18.5Z"/><path class="cls-2" d="M14.7,19.3V13.1h.9v5.2h1.2v1Z"/><path class="cls-2" d="M17.2,19.3V13.1h2.3v1H18.1v1.5h1.3v1H18.1v1.8h1.4v1H17.2Z"/><path class="cls-2" d="M22.7,17.6a3.08,3.08,0,0,1-.1,1,2.19,2.19,0,0,1-.3.5.76.76,0,0,1-.5.2c-.2,0-.3.1-.5.1a1.45,1.45,0,0,1-.7-.2c-.2-.1-.3-.3-.4-.4s-.1-.4-.2-.6v-.8h.8v.4a.37.37,0,0,0,.1.3.35.35,0,0,0,.1.2.37.37,0,0,0,.3.1c.1,0,.3-.1.3-.2a.75.75,0,0,0,.1-.5.9.9,0,0,0-.1-.5c-.1-.1-.2-.3-.3-.4s-.3-.2-.4-.4l-.4-.4-.3-.6a2,2,0,0,1-.1-.8,1.7,1.7,0,0,1,.1-.7,1.42,1.42,0,0,1,.2-.6.78.78,0,0,1,.4-.4,1.48,1.48,0,0,1,.7-.1,1,1,0,0,1,.9.4,2.65,2.65,0,0,1,.3,1.4h-.9v-.3a.37.37,0,0,0-.1-.3.35.35,0,0,0-.1-.2c-.1-.1-.1-.1-.2-.1s-.3.1-.3.2a.75.75,0,0,0-.1.5.75.75,0,0,0,.1.5c.1.1.2.3.3.4s.3.2.4.3l.4.4a3.33,3.33,0,0,1,.3.6A4.4,4.4,0,0,1,22.7,17.6Z"/><path class="cls-2" d="M24.7,19.4a1,1,0,0,1-.8-.3,1.61,1.61,0,0,1-.4-.7c-.1-.3-.1-.6-.2-1V15a3,3,0,0,1,.2-1,1.61,1.61,0,0,1,.4-.7,1.14,1.14,0,0,1,.8-.3,1.23,1.23,0,0,1,1,.5A3.34,3.34,0,0,1,26,15h-.9a2.22,2.22,0,0,0-.1-.9c-.1-.1-.2-.2-.3-.2a.37.37,0,0,0-.3.1c-.1.1-.1.2-.2.4s-.1.4-.1.7v2a1.48,1.48,0,0,0,.1.7.52.52,0,0,0,.2.4.37.37,0,0,0,.3.1c.1,0,.2,0,.2-.1a.37.37,0,0,0,.1-.3v-.8h.9a2.79,2.79,0,0,1-.1,1,6.37,6.37,0,0,1-.2.7.78.78,0,0,1-.4.4A.55.55,0,0,1,24.7,19.4Z"/><path class="cls-2" d="M26.5,19.3V13.1h2.3v1H27.4v1.5h1.3v1H27.4v1.8h1.4v1H26.5Z"/><path class="cls-2" d="M29.3,19.3V13.1h1.2l1.1,4.3h0V13.1h.8v6.2H31.3l-1.1-4.5h0v4.5Z"/><path class="cls-2" d="M35.6,13.1v1h-1v5.2h-.8V14.1h-1v-1Z"/><path class="cls-2" d="M36,19.3V13.1h2.3v1H36.9v1.5h1.3v1H36.9v1.8h1.4v1H36Z"/><path class="cls-2" d="M41.5,17.6a3.08,3.08,0,0,1-.1,1,2.19,2.19,0,0,1-.3.5.76.76,0,0,1-.5.2c-.2,0-.3.1-.5.1a1.45,1.45,0,0,1-.7-.2c-.2-.1-.3-.3-.4-.4s-.1-.4-.2-.6v-.8h.9v.4a.37.37,0,0,0,.1.3.35.35,0,0,0,.1.2.37.37,0,0,0,.3.1c.1,0,.3-.1.3-.2a.75.75,0,0,0,.1-.5.9.9,0,0,0-.1-.5c-.1-.1-.2-.3-.3-.4s-.3-.2-.4-.4-.3-.3-.4-.4l-.3-.6a2,2,0,0,1-.1-.8,1.7,1.7,0,0,1,.1-.7,1.42,1.42,0,0,1,.2-.6.78.78,0,0,1,.4-.4,1.48,1.48,0,0,1,.7-.1,1,1,0,0,1,.9.4,2.65,2.65,0,0,1,.3,1.4h-.8v-.3a.37.37,0,0,0-.1-.3.35.35,0,0,0-.1-.2c-.1-.1-.1-.1-.2-.1s-.3.1-.3.2a.75.75,0,0,0-.1.5.75.75,0,0,0,.1.5c.1.1.2.3.3.4s.3.2.4.3l.4.4a3.33,3.33,0,0,1,.3.6Z"/></g></g></svg>